<svg width="20" height="20" viewBox="0 0 20 20" fill="none" xmlns="http://www.w3.org/2000/svg">
<path d="M12.6127 10.0834L16.3175 6.37866C16.7721 5.92402 16.7721 5.18692 16.3175 4.73192L15.4941 3.90855C15.0395 3.45392 14.3024 3.45392 13.8474 3.90855L10.1426 7.61334L6.43779 3.90855C5.98316 3.45392 5.24605 3.45392 4.79105 3.90855L3.96768 4.73192C3.51305 5.18655 3.51305 5.92365 3.96768 6.37866L7.67248 10.0834L3.96768 13.7882C3.51305 14.2429 3.51305 14.98 3.96768 15.435L4.79105 16.2584C5.24568 16.713 5.98316 16.713 6.43779 16.2584L10.1426 12.5536L13.8474 16.2584C14.302 16.713 15.0395 16.713 15.4941 16.2584L16.3175 15.435C16.7721 14.9804 16.7721 14.2432 16.3175 13.7882L12.6127 10.0834Z" fill="#F85858"/>
</svg>
