<svg width="20" height="20" viewBox="0 0 20 20" fill="none" xmlns="http://www.w3.org/2000/svg">
<path d="M11.9796 10.0834L15.6844 6.37866C16.139 5.92402 16.139 5.18692 15.6844 4.73192L14.861 3.90855C14.4064 3.45392 13.6693 3.45392 13.2143 3.90855L9.50947 7.61334L5.80467 3.90855C5.35004 3.45392 4.61293 3.45392 4.15793 3.90855L3.33456 4.73192C2.87993 5.18655 2.87993 5.92365 3.33456 6.37866L7.03936 10.0834L3.33456 13.7882C2.87993 14.2429 2.87993 14.98 3.33456 15.435L4.15793 16.2584C4.61256 16.713 5.35004 16.713 5.80467 16.2584L9.50947 12.5536L13.2143 16.2584C13.6689 16.713 14.4064 16.713 14.861 16.2584L15.6844 15.435C16.139 14.9804 16.139 14.2432 15.6844 13.7882L11.9796 10.0834Z" fill="#F85858"/>
</svg>
