<svg width="12" height="11" viewBox="0 0 12 11" fill="none" xmlns="http://www.w3.org/2000/svg">
<path d="M4.95913 3.5241C5.06422 3.62712 5.06422 3.79815 4.96119 3.90324L3.71044 5.15811H8.47649C8.62278 5.15811 8.7423 5.27762 8.7423 5.42598C8.7423 5.57434 8.62278 5.69385 8.47649 5.69385H3.71044L4.96325 6.94873C5.06628 7.05381 5.06422 7.22278 4.96119 7.32787C4.85611 7.43089 4.6892 7.43089 4.58411 7.32581L2.88622 5.61555C2.86356 5.59083 2.84501 5.56404 2.83059 5.53107C2.81616 5.4981 2.80998 5.46307 2.80998 5.42804C2.80998 5.35798 2.83677 5.29205 2.88622 5.24053L4.58411 3.53028C4.68508 3.42313 4.85404 3.42107 4.95913 3.5241Z" fill="white"/>
</svg>
