<svg width="84" height="33" viewBox="0 0 84 33" fill="none" xmlns="http://www.w3.org/2000/svg">
<path d="M8.25029 32.9429C6.95615 32.9429 5.73236 32.5771 4.57889 31.8457C3.42542 31.0861 2.49702 30.0873 1.79369 28.8495C1.11849 27.6116 0.780884 26.3034 0.780884 24.9249V20.3673C0.780884 18.9043 1.11849 17.5821 1.79369 16.4005C2.49702 15.1907 3.42542 14.2342 4.57889 13.5309C5.73236 12.7994 6.99835 12.4337 8.37688 12.4337C9.75542 12.4337 10.9089 12.7713 11.8373 13.4465C12.7938 14.0935 13.4971 14.825 13.9473 15.6409V1.50385C13.9473 1.16625 14.0879 0.913052 14.3693 0.744252C14.6506 0.547319 14.9741 0.448853 15.3399 0.448853C15.7619 0.448853 16.0854 0.547319 16.3105 0.744252C16.5637 0.913052 16.6903 1.16625 16.6903 1.50385V31.5503C16.6903 31.8316 16.5637 32.0848 16.3105 32.3099C16.0854 32.5349 15.7619 32.6475 15.3399 32.6475C15.0023 32.6475 14.6928 32.5349 14.4115 32.3099C14.1583 32.0848 14.0317 31.8316 14.0317 31.5503V29.6935C13.6097 30.5656 12.8642 31.3252 11.7951 31.9723C10.7542 32.6193 9.57255 32.9429 8.25029 32.9429ZM8.75669 30.4109C9.76949 30.4109 10.6557 30.1577 11.4153 29.6513C12.203 29.1167 12.822 28.5259 13.2721 27.8789C13.7222 27.2037 13.9473 26.6551 13.9473 26.2331V20.3673C13.9473 19.2138 13.6941 18.2432 13.1877 17.4555C12.6813 16.6677 12.0342 16.0629 11.2465 15.6409C10.4588 15.1907 9.64288 14.9657 8.79888 14.9657C7.84235 14.9657 6.97022 15.2329 6.18248 15.7675C5.39475 16.2739 4.76175 16.935 4.28348 17.7509C3.80521 18.5667 3.56608 19.4389 3.56608 20.3673V24.9249C3.56608 25.8533 3.80521 26.7395 4.28348 27.5835C4.76175 28.4275 5.39475 29.1167 6.18248 29.6513C6.97022 30.1577 7.82829 30.4109 8.75669 30.4109ZM23.3737 6.77885C22.8673 6.77885 22.4172 6.61005 22.0233 6.27245C21.6576 5.90672 21.4747 5.48472 21.4747 5.00645C21.4747 4.52819 21.6576 4.12025 22.0233 3.78265C22.4172 3.44505 22.8673 3.27625 23.3737 3.27625C23.8801 3.27625 24.3162 3.44505 24.6819 3.78265C25.0476 4.12025 25.2305 4.52819 25.2305 5.00645C25.2305 5.48472 25.0476 5.90672 24.6819 6.27245C24.3162 6.61005 23.8801 6.77885 23.3737 6.77885ZM23.3315 32.6475C22.9658 32.6475 22.6422 32.5349 22.3609 32.3099C22.1077 32.0848 21.9811 31.8316 21.9811 31.5503V13.7419C21.9811 13.4043 22.1077 13.1511 22.3609 12.9823C22.6422 12.7853 22.9658 12.6869 23.3315 12.6869C23.7254 12.6869 24.0489 12.7853 24.3021 12.9823C24.5834 13.1511 24.7241 13.4043 24.7241 13.7419V31.5503C24.7241 31.8316 24.5834 32.0848 24.3021 32.3099C24.0489 32.5349 23.7254 32.6475 23.3315 32.6475ZM34.4073 32.9429C32.8037 32.9429 31.4392 32.4927 30.3138 31.5925C29.2166 30.6641 28.6681 29.2574 28.6681 27.3725C28.6681 25.8251 29.076 24.6435 29.8919 23.8277C30.7359 22.9837 31.8893 22.4069 33.3523 22.0975C34.8433 21.7599 36.5595 21.5911 38.5002 21.5911H40.6529V20.6205C40.6529 19.6921 40.4841 18.7918 40.1465 17.9197C39.837 17.0194 39.3165 16.2879 38.5851 15.7253C37.8817 15.1345 36.9111 14.8391 35.6733 14.8391C34.7449 14.8391 33.9852 14.9375 33.3944 15.1345C32.8036 15.3314 32.3394 15.5424 32.0018 15.7675C31.6642 15.9644 31.3829 16.0629 31.1579 16.0629C30.8203 16.0629 30.5389 15.8941 30.3138 15.5565C30.1169 15.2189 30.0184 14.9094 30.0184 14.6281C30.0184 14.2342 30.3139 13.8825 30.9047 13.5731C31.4955 13.2355 32.2269 12.9682 33.099 12.7713C33.9993 12.5462 34.8855 12.4337 35.7576 12.4337C37.6426 12.4337 39.1336 12.8275 40.2308 13.6153C41.3562 14.3749 42.158 15.3736 42.6363 16.6115C43.1427 17.8493 43.3959 19.1716 43.3959 20.5783V31.5503C43.3959 31.8597 43.2692 32.127 43.016 32.3521C42.791 32.549 42.4675 32.6475 42.0455 32.6475C41.7079 32.6475 41.3984 32.549 41.1171 32.3521C40.8639 32.127 40.7373 31.8597 40.7373 31.5503V29.6935C40.0339 30.5375 39.1618 31.2971 38.1209 31.9723C37.0799 32.6193 35.8421 32.9429 34.4073 32.9429ZM35.0825 30.6219C36.0109 30.6219 36.897 30.3827 37.741 29.9045C38.585 29.4262 39.2743 28.8495 39.8089 28.1743C40.3715 27.4709 40.6529 26.8098 40.6529 26.1909V23.4901H38.8805C37.6145 23.4901 36.4047 23.5745 35.2513 23.7433C34.1259 23.8839 33.1975 24.2075 32.466 24.7139C31.7627 25.2203 31.411 26.0221 31.411 27.1193C31.411 28.329 31.7627 29.2152 32.466 29.7779C33.1975 30.3405 34.0697 30.6219 35.0825 30.6219ZM34.6183 7.79165C34.3369 7.79165 34.0837 7.66505 33.8586 7.41185C33.6336 7.15865 33.5211 6.89139 33.5211 6.61005C33.5211 6.21619 33.6758 5.94892 33.9853 5.80825L38.7117 3.23405C38.8523 3.14965 38.9649 3.10745 39.0493 3.10745C39.3587 3.10745 39.5979 3.23405 39.7662 3.48725C39.9636 3.74045 40.0621 4.02179 40.0621 4.33125C40.0621 4.75325 39.8933 5.06272 39.5557 5.25965L35.0403 7.62285C34.984 7.65098 34.9136 7.69319 34.8292 7.74945C34.7448 7.77759 34.6745 7.79165 34.6183 7.79165ZM49.83 32.6475C49.4643 32.6475 49.1408 32.5349 48.8594 32.3099C48.6062 32.0848 48.4796 31.8316 48.4796 31.5503V13.7419C48.4796 13.4043 48.6062 13.1511 48.8594 12.9823C49.1408 12.7853 49.4643 12.6869 49.83 12.6869C50.1958 12.6869 50.5052 12.7853 50.7584 12.9823C51.0116 13.1511 51.1382 13.4043 51.1382 13.7419V15.8097C51.4477 15.2189 51.8697 14.6703 52.4042 14.1639C52.9388 13.6575 53.5718 13.2495 54.3032 12.9401C55.0347 12.6025 55.8646 12.4337 56.793 12.4337H58.27C58.5795 12.4337 58.8327 12.5603 59.0296 12.8135C59.2547 13.0667 59.3672 13.3621 59.3672 13.6997C59.3672 14.0654 59.2547 14.3749 59.0296 14.6281C58.8327 14.8531 58.5795 14.9657 58.27 14.9657H56.793C55.8646 14.9657 54.9644 15.2189 54.0922 15.7253C53.2482 16.2317 52.559 16.935 52.0244 17.8353C51.4899 18.7355 51.2226 19.8327 51.2226 21.1269V31.5503C51.2226 31.8316 51.082 32.0848 50.8006 32.3099C50.5474 32.5349 50.2239 32.6475 49.83 32.6475ZM63.8017 6.77885C63.2953 6.77885 62.8452 6.61005 62.4514 6.27245C62.0856 5.90672 61.9027 5.48472 61.9027 5.00645C61.9027 4.52819 62.0856 4.12025 62.4514 3.78265C62.8452 3.44505 63.2953 3.27625 63.8017 3.27625C64.3081 3.27625 64.7442 3.44505 65.11 3.78265C65.4757 4.12025 65.6585 4.52819 65.6585 5.00645C65.6585 5.48472 65.4757 5.90672 65.11 6.27245C64.7442 6.61005 64.3081 6.77885 63.8017 6.77885ZM63.7595 32.6475C63.3938 32.6475 63.0703 32.5349 62.7889 32.3099C62.5357 32.0848 62.4092 31.8316 62.4092 31.5503V13.7419C62.4092 13.4043 62.5357 13.1511 62.7889 12.9823C63.0703 12.7853 63.3938 12.6869 63.7595 12.6869C64.1534 12.6869 64.4769 12.7853 64.7301 12.9823C65.0115 13.1511 65.1522 13.4043 65.1522 13.7419V31.5503C65.1522 31.8316 65.0115 32.0848 64.7301 32.3099C64.4769 32.5349 64.1534 32.6475 63.7595 32.6475ZM74.8349 32.9429C73.2313 32.9429 71.8668 32.4927 70.7414 31.5925C69.6442 30.6641 69.0957 29.2574 69.0957 27.3725C69.0957 25.8251 69.5036 24.6435 70.3195 23.8277C71.1635 22.9837 72.3169 22.4069 73.7799 22.0975C75.2709 21.7599 76.9871 21.5911 78.9283 21.5911H81.0805V20.6205C81.0805 19.6921 80.9117 18.7918 80.5741 17.9197C80.2646 17.0194 79.7441 16.2879 79.0127 15.7253C78.3093 15.1345 77.3387 14.8391 76.1009 14.8391C75.1725 14.8391 74.4128 14.9375 73.822 15.1345C73.2312 15.3314 72.7671 15.5424 72.4295 15.7675C72.0919 15.9644 71.8105 16.0629 71.5855 16.0629C71.2479 16.0629 70.9665 15.8941 70.7414 15.5565C70.5445 15.2189 70.446 14.9094 70.446 14.6281C70.446 14.2342 70.7414 13.8825 71.3322 13.5731C71.923 13.2355 72.6545 12.9682 73.5266 12.7713C74.4269 12.5462 75.3131 12.4337 76.1853 12.4337C78.0702 12.4337 79.5612 12.8275 80.6584 13.6153C81.7838 14.3749 82.5856 15.3736 83.0639 16.6115C83.5703 17.8493 83.8235 19.1716 83.8235 20.5783V31.5503C83.8235 31.8597 83.6968 32.127 83.4436 32.3521C83.2186 32.549 82.8951 32.6475 82.4731 32.6475C82.1355 32.6475 81.826 32.549 81.5447 32.3521C81.2915 32.127 81.1649 31.8597 81.1649 31.5503V29.6935C80.4615 30.5375 79.5894 31.2971 78.5484 31.9723C77.5075 32.6193 76.2697 32.9429 74.8349 32.9429ZM75.5101 30.6219C76.4385 30.6219 77.3246 30.3827 78.1686 29.9045C79.0126 29.4262 79.7019 28.8495 80.2365 28.1743C80.7991 27.4709 81.0805 26.8098 81.0805 26.1909V23.4901H79.3081C78.0421 23.4901 76.8323 23.5745 75.6788 23.7433C74.5535 23.8839 73.6251 24.2075 72.8936 24.7139C72.1903 25.2203 71.8387 26.0221 71.8387 27.1193C71.8387 28.329 72.1903 29.2152 72.8936 29.7779C73.6251 30.3405 74.4973 30.6219 75.5101 30.6219Z" fill="#45EDAD"/>
</svg>
