<svg width="94" height="30" viewBox="0 0 94 30" fill="none" xmlns="http://www.w3.org/2000/svg">
<path d="M3.62158 29.0017C2.83384 29.0017 2.18677 28.8188 1.68037 28.4531C1.17397 28.0873 0.920776 27.6794 0.920776 27.2293V10.6447C0.920776 10.1383 1.17397 9.73032 1.68037 9.42085C2.18677 9.11139 2.83384 8.95665 3.62158 8.95665C4.29678 8.95665 4.85944 9.11139 5.30957 9.42085C5.78784 9.73032 6.02698 10.1383 6.02698 10.6447V11.9107C6.50524 11.0948 7.20858 10.3633 8.13698 9.71625C9.06538 9.04105 10.2329 8.70345 11.6396 8.70345C12.8493 8.70345 13.9184 9.09732 14.8468 9.88505C15.7752 10.6728 16.4644 11.6856 16.9146 12.9235C17.646 11.4887 18.5744 10.4337 19.6998 9.75845C20.8532 9.05512 22.0348 8.70345 23.2446 8.70345C24.5387 8.70345 25.7484 9.04105 26.8738 9.71625C28.0272 10.3633 28.9556 11.3339 29.659 12.6281C30.3904 13.8941 30.7562 15.4414 30.7562 17.2701V27.2293C30.7562 27.6794 30.4889 28.0873 29.9544 28.4531C29.4198 28.8188 28.7728 29.0017 28.0132 29.0017C27.2817 29.0017 26.6487 28.8188 26.1142 28.4531C25.5796 28.0873 25.3124 27.6794 25.3124 27.2293V17.2701C25.3124 16.4261 25.1436 15.7227 24.806 15.1601C24.4965 14.5974 24.0745 14.1754 23.54 13.8941C23.0054 13.5846 22.4568 13.4299 21.8942 13.4299C21.3596 13.4299 20.8392 13.5846 20.3328 13.8941C19.8264 14.1754 19.4044 14.5974 19.0668 15.1601C18.7292 15.7227 18.5604 16.412 18.5604 17.2279V27.2715C18.5604 27.8904 18.265 28.3405 17.6742 28.6219C17.1115 28.8751 16.4926 29.0017 15.8174 29.0017C15.1984 29.0017 14.5936 28.8751 14.0028 28.6219C13.412 28.3405 13.1166 27.8904 13.1166 27.2715V17.2701C13.1166 16.4823 12.9478 15.8071 12.6102 15.2445C12.3007 14.6818 11.8787 14.2457 11.3442 13.9363C10.8378 13.6268 10.2892 13.4721 9.69838 13.4721C9.13571 13.4721 8.60117 13.6127 8.09477 13.8941C7.58837 14.1754 7.16638 14.5974 6.82878 15.1601C6.51931 15.7227 6.36458 16.4261 6.36458 17.2701V27.2293C6.36458 27.6794 6.09731 28.0873 5.56278 28.4531C5.02824 28.8188 4.38118 29.0017 3.62158 29.0017ZM44.2492 29.3815C42.2517 29.3815 40.4793 29.0298 38.932 28.3265C37.4128 27.595 36.2171 26.5822 35.345 25.2881C34.4728 23.9658 34.0368 22.4466 34.0368 20.7305V17.1435C34.0368 15.6243 34.4447 14.2317 35.2606 12.9657C36.1046 11.6715 37.2158 10.6447 38.5944 9.88505C40.001 9.09732 41.5625 8.70345 43.2786 8.70345C44.8541 8.70345 46.2888 9.04105 47.583 9.71625C48.9052 10.3915 49.9743 11.3199 50.7902 12.5015C51.6061 13.6831 52.014 15.0616 52.014 16.6371C52.014 17.8468 51.8171 18.7189 51.4232 19.2535C51.0293 19.7599 50.5229 20.0834 49.904 20.2241C49.3132 20.3366 48.6942 20.3929 48.0472 20.3929H39.4806V21.0259C39.4806 22.2356 39.9307 23.2203 40.831 23.9799C41.7594 24.7113 42.9551 25.0771 44.418 25.0771C45.3464 25.0771 46.1201 24.9364 46.739 24.6551C47.3579 24.3737 47.8924 24.1065 48.3426 23.8533C48.7927 23.6001 49.2147 23.4735 49.6086 23.4735C50.0306 23.4735 50.3963 23.6141 50.7058 23.8955C51.0152 24.1768 51.2544 24.5144 51.4232 24.9083C51.592 25.274 51.6764 25.5975 51.6764 25.8789C51.6764 26.3571 51.3669 26.8776 50.748 27.4403C50.1572 27.9748 49.2991 28.439 48.1738 28.8329C47.0766 29.1986 45.7684 29.3815 44.2492 29.3815ZM39.4806 17.1857H45.6418C46.1201 17.1857 46.4436 17.1153 46.6124 16.9747C46.8093 16.8059 46.9078 16.4964 46.9078 16.0463C46.9078 15.3992 46.7249 14.8225 46.3592 14.3161C46.0216 13.8097 45.5715 13.4158 45.0088 13.1345C44.4743 12.8531 43.8694 12.7125 43.1942 12.7125C42.5471 12.7125 41.9422 12.8531 41.3796 13.1345C40.8169 13.3877 40.3527 13.7675 39.987 14.2739C39.6494 14.7521 39.4806 15.3289 39.4806 16.0041V17.1857ZM63.0005 29.0017C60.4685 29.0017 58.5273 28.4531 57.1769 27.3559C55.8546 26.2587 55.1935 24.5144 55.1935 22.1231V1.69825C55.1935 1.19185 55.4889 0.78392 56.0797 0.474454C56.6705 0.164987 57.2754 0.0102539 57.8943 0.0102539C58.5695 0.0102539 59.1884 0.164987 59.7511 0.474454C60.3419 0.78392 60.6373 1.19185 60.6373 1.69825V8.95665H65.6169C66.067 8.95665 66.4046 9.16765 66.6297 9.58965C66.8829 9.98352 67.0095 10.4337 67.0095 10.9401C67.0095 11.4465 66.8829 11.9107 66.6297 12.3327C66.4046 12.7265 66.067 12.9235 65.6169 12.9235H60.6373V22.1231C60.6373 22.9671 60.8061 23.5579 61.1437 23.8955C61.5094 24.2331 62.1284 24.4019 63.0005 24.4019H64.6463C65.434 24.4019 66.0108 24.641 66.3765 25.1193C66.7704 25.5975 66.9673 26.118 66.9673 26.6807C66.9673 27.2715 66.7704 27.806 66.3765 28.2843C66.0108 28.7625 65.434 29.0017 64.6463 29.0017H63.0005ZM74.0885 29.3815C72.5975 29.3815 71.3033 28.9313 70.2061 28.0311C69.1371 27.1027 68.6025 25.6819 68.6025 23.7689C68.6025 22.1653 69.0105 20.9133 69.8263 20.0131C70.6703 19.1128 71.8238 18.4798 73.2867 18.1141C74.7778 17.7483 76.4939 17.5655 78.4351 17.5655H80.1653V17.0169C80.1653 16.3979 80.0387 15.7931 79.7855 15.2023C79.5605 14.6115 79.1807 14.1191 78.6461 13.7253C78.1397 13.3314 77.4083 13.1345 76.4517 13.1345C75.3827 13.1345 74.5527 13.247 73.9619 13.4721C73.3993 13.669 72.9632 13.88 72.6537 14.1051C72.3443 14.3301 72.0067 14.4427 71.6409 14.4427C71.0501 14.4427 70.5859 14.1473 70.2483 13.5565C69.9389 12.9657 69.7841 12.3608 69.7841 11.7419C69.7841 11.1511 70.1358 10.6306 70.8391 10.1805C71.5706 9.70219 72.4568 9.33645 73.4977 9.08325C74.5387 8.83005 75.5515 8.70345 76.5361 8.70345C78.7305 8.70345 80.4889 9.09732 81.8111 9.88505C83.1334 10.6728 84.0899 11.6856 84.6807 12.9235C85.2997 14.1613 85.6091 15.4977 85.6091 16.9325V27.2293C85.6091 27.7357 85.3559 28.1577 84.8495 28.4953C84.3431 28.8329 83.7101 29.0017 82.9505 29.0017C82.2472 29.0017 81.6564 28.8329 81.1781 28.4953C80.728 28.1577 80.5029 27.7357 80.5029 27.2293V26.0477C79.7433 26.9198 78.8431 27.6935 77.8021 28.3687C76.7893 29.0439 75.5515 29.3815 74.0885 29.3815ZM76.2829 25.3303C76.8737 25.3303 77.4645 25.1333 78.0553 24.7395C78.6461 24.3456 79.1385 23.8392 79.5323 23.2203C79.9543 22.6013 80.1653 21.9543 80.1653 21.2791V20.3929H79.5323C78.6039 20.3929 77.7177 20.4491 76.8737 20.5617C76.0297 20.6742 75.3405 20.9274 74.8059 21.3213C74.2995 21.687 74.0463 22.2637 74.0463 23.0515C74.0463 23.8392 74.2573 24.4159 74.6793 24.7817C75.1295 25.1474 75.664 25.3303 76.2829 25.3303ZM91.1672 29.2549C90.6046 29.2549 90.1263 29.0579 89.7324 28.6641C89.3667 28.2702 89.1838 27.8201 89.1838 27.3137C89.1838 26.751 89.3667 26.2868 89.7324 25.9211C90.1263 25.5272 90.6046 25.3303 91.1672 25.3303C91.6736 25.3303 92.1097 25.5272 92.4754 25.9211C92.8693 26.2868 93.0662 26.751 93.0662 27.3137C93.0662 27.8201 92.8693 28.2702 92.4754 28.6641C92.1097 29.0579 91.6736 29.2549 91.1672 29.2549Z" fill="white"/>
</svg>
