<svg width="85" height="33" viewBox="0 0 85 33" fill="none" xmlns="http://www.w3.org/2000/svg">
<path d="M8.39417 32.9871C7.09936 32.9871 5.87492 32.6211 4.72084 31.8893C3.56677 31.1293 2.63788 30.13 1.93418 28.8915C1.25862 27.653 0.920837 26.3441 0.920837 24.9648V20.4048C0.920837 18.9411 1.25862 17.6182 1.93418 16.436C2.63788 15.2256 3.56677 14.2685 4.72084 13.5648C5.87492 12.833 7.14158 12.4671 8.52084 12.4671C9.9001 12.4671 11.0542 12.8048 11.9831 13.4804C12.9401 14.1278 13.6438 14.8597 14.0942 15.676V1.53151C14.0942 1.19373 14.2349 0.940396 14.5164 0.771507C14.7979 0.57447 15.1216 0.475952 15.4875 0.475952C15.9097 0.475952 16.2334 0.57447 16.4586 0.771507C16.7119 0.940396 16.8386 1.19373 16.8386 1.53151V31.5937C16.8386 31.8752 16.7119 32.1285 16.4586 32.3537C16.2334 32.5789 15.9097 32.6915 15.4875 32.6915C15.1497 32.6915 14.8401 32.5789 14.5586 32.3537C14.3053 32.1285 14.1786 31.8752 14.1786 31.5937V29.736C13.7564 30.6085 13.0105 31.3685 11.9408 32.016C10.8994 32.6634 9.71714 32.9871 8.39417 32.9871ZM8.90084 30.4537C9.91418 30.4537 10.8008 30.2004 11.5608 29.6937C12.349 29.1589 12.9683 28.5678 13.4186 27.9204C13.869 27.2448 14.0942 26.696 14.0942 26.2737V20.4048C14.0942 19.2508 13.8408 18.2797 13.3342 17.4915C12.8275 16.7034 12.1801 16.0982 11.392 15.676C10.6038 15.2256 9.7875 15.0004 8.94306 15.0004C7.98602 15.0004 7.11343 15.2678 6.32528 15.8026C5.53713 16.3093 4.90379 16.9708 4.42528 17.7871C3.94676 18.6034 3.7075 19.476 3.7075 20.4048V24.9648C3.7075 25.8937 3.94676 26.7804 4.42528 27.6248C4.90379 28.4693 5.53713 29.1589 6.32528 29.6937C7.11343 30.2004 7.97195 30.4537 8.90084 30.4537ZM23.5256 6.80929C23.0189 6.80929 22.5685 6.6404 22.1745 6.30262C21.8085 5.93669 21.6256 5.51447 21.6256 5.03595C21.6256 4.55743 21.8085 4.14928 22.1745 3.81151C22.5685 3.47373 23.0189 3.30484 23.5256 3.30484C24.0322 3.30484 24.4685 3.47373 24.8345 3.81151C25.2004 4.14928 25.3833 4.55743 25.3833 5.03595C25.3833 5.51447 25.2004 5.93669 24.8345 6.30262C24.4685 6.6404 24.0322 6.80929 23.5256 6.80929ZM23.4833 32.6915C23.1174 32.6915 22.7937 32.5789 22.5122 32.3537C22.2589 32.1285 22.1322 31.8752 22.1322 31.5937V13.776C22.1322 13.4382 22.2589 13.1848 22.5122 13.016C22.7937 12.8189 23.1174 12.7204 23.4833 12.7204C23.8774 12.7204 24.2011 12.8189 24.4544 13.016C24.7359 13.1848 24.8767 13.4382 24.8767 13.776V31.5937C24.8767 31.8752 24.7359 32.1285 24.4544 32.3537C24.2011 32.5789 23.8774 32.6915 23.4833 32.6915ZM34.5649 32.9871C32.9605 32.9871 31.5953 32.5367 30.4694 31.636C29.3716 30.7071 28.8227 29.2997 28.8227 27.4137C28.8227 25.8656 29.2308 24.6834 30.0471 23.8671C30.8916 23.0226 32.0457 22.4456 33.5094 22.136C35.0012 21.7982 36.7182 21.6293 38.66 21.6293H40.8138V20.6582C40.8138 19.7293 40.6449 18.8285 40.3071 17.956C39.9975 17.0552 39.4768 16.3234 38.7449 15.7604C38.0412 15.1693 37.0701 14.8737 35.8316 14.8737C34.9027 14.8737 34.1427 14.9722 33.5516 15.1693C32.9605 15.3663 32.496 15.5774 32.1582 15.8026C31.8205 15.9997 31.539 16.0982 31.3138 16.0982C30.976 16.0982 30.6945 15.9293 30.4694 15.5915C30.2723 15.2537 30.1738 14.9441 30.1738 14.6626C30.1738 14.2685 30.4694 13.9167 31.0605 13.6071C31.6516 13.2693 32.3834 13.0019 33.256 12.8048C34.1568 12.5797 35.0434 12.4671 35.916 12.4671C37.8019 12.4671 39.2938 12.8611 40.3916 13.6493C41.5175 14.4093 42.3197 15.4085 42.7982 16.6471C43.3049 17.8856 43.5582 19.2085 43.5582 20.616V31.5937C43.5582 31.9034 43.4316 32.1708 43.1782 32.396C42.9531 32.593 42.6294 32.6915 42.2071 32.6915C41.8694 32.6915 41.5597 32.593 41.2782 32.396C41.0249 32.1708 40.8982 31.9034 40.8982 31.5937V29.736C40.1945 30.5804 39.3219 31.3404 38.2805 32.016C37.239 32.6634 36.0005 32.9871 34.5649 32.9871ZM35.2405 30.6648C36.1694 30.6648 37.056 30.4256 37.9005 29.9471C38.7449 29.4685 39.4345 28.8915 39.9694 28.216C40.5323 27.5122 40.8138 26.8508 40.8138 26.2315V23.5293H39.0405C37.7738 23.5293 36.5634 23.6137 35.4094 23.7826C34.2834 23.9234 33.3545 24.2471 32.6227 24.7537C31.919 25.2604 31.5671 26.0626 31.5671 27.1604C31.5671 28.3708 31.919 29.2574 32.6227 29.8204C33.3545 30.3834 34.2271 30.6648 35.2405 30.6648ZM34.776 7.82262C34.4945 7.82262 34.2412 7.69595 34.016 7.44262C33.7908 7.18929 33.6782 6.92188 33.6782 6.6404C33.6782 6.24632 33.8331 5.97892 34.1427 5.83817L38.8716 3.26262C39.0123 3.17817 39.1249 3.13595 39.2094 3.13595C39.519 3.13595 39.7582 3.26262 39.9267 3.51595C40.1242 3.76929 40.2227 4.05077 40.2227 4.3604C40.2227 4.78262 40.0538 5.09225 39.716 5.28928L35.1982 7.65373C35.1419 7.68188 35.0716 7.7241 34.9871 7.7804C34.9027 7.80855 34.8323 7.82262 34.776 7.82262ZM49.9958 32.6915C49.6299 32.6915 49.3062 32.5789 49.0247 32.3537C48.7714 32.1285 48.6447 31.8752 48.6447 31.5937V13.776C48.6447 13.4382 48.7714 13.1848 49.0247 13.016C49.3062 12.8189 49.6299 12.7204 49.9958 12.7204C50.3617 12.7204 50.6714 12.8189 50.9247 13.016C51.178 13.1848 51.3047 13.4382 51.3047 13.776V15.8448C51.6143 15.2537 52.0366 14.7048 52.5714 14.1982C53.1062 13.6915 53.7395 13.2834 54.4714 12.9737C55.2032 12.636 56.0336 12.4671 56.9625 12.4671H58.4403C58.7499 12.4671 59.0032 12.5937 59.2002 12.8471C59.4254 13.1004 59.538 13.396 59.538 13.7337C59.538 14.0997 59.4254 14.4093 59.2002 14.6626C59.0032 14.8878 58.7499 15.0004 58.4403 15.0004H56.9625C56.0336 15.0004 55.1328 15.2537 54.2602 15.7604C53.4158 16.2671 52.7262 16.9708 52.1914 17.8715C51.6566 18.7723 51.3892 19.87 51.3892 21.1648V31.5937C51.3892 31.8752 51.2484 32.1285 50.9669 32.3537C50.7136 32.5789 50.3899 32.6915 49.9958 32.6915ZM63.9749 6.80929C63.4682 6.80929 63.0179 6.6404 62.6238 6.30262C62.2579 5.93669 62.0749 5.51447 62.0749 5.03595C62.0749 4.55743 62.2579 4.14928 62.6238 3.81151C63.0179 3.47373 63.4682 3.30484 63.9749 3.30484C64.4815 3.30484 64.9179 3.47373 65.2838 3.81151C65.6497 4.14928 65.8327 4.55743 65.8327 5.03595C65.8327 5.51447 65.6497 5.93669 65.2838 6.30262C64.9179 6.6404 64.4815 6.80929 63.9749 6.80929ZM63.9327 32.6915C63.5667 32.6915 63.243 32.5789 62.9615 32.3537C62.7082 32.1285 62.5816 31.8752 62.5816 31.5937V13.776C62.5816 13.4382 62.7082 13.1848 62.9615 13.016C63.243 12.8189 63.5667 12.7204 63.9327 12.7204C64.3267 12.7204 64.6504 12.8189 64.9038 13.016C65.1853 13.1848 65.326 13.4382 65.326 13.776V31.5937C65.326 31.8752 65.1853 32.1285 64.9038 32.3537C64.6504 32.5789 64.3267 32.6915 63.9327 32.6915ZM75.0138 32.9871C73.4093 32.9871 72.0442 32.5367 70.9182 31.636C69.8205 30.7071 69.2716 29.2997 69.2716 27.4137C69.2716 25.8656 69.6797 24.6834 70.496 23.8671C71.3405 23.0226 72.4946 22.4456 73.9583 22.136C75.4501 21.7982 77.1671 21.6293 79.1094 21.6293H81.2627V20.6582C81.2627 19.7293 81.0938 18.8285 80.756 17.956C80.4464 17.0552 79.9257 16.3234 79.1938 15.7604C78.4901 15.1693 77.519 14.8737 76.2805 14.8737C75.3516 14.8737 74.5916 14.9722 74.0005 15.1693C73.4093 15.3663 72.9449 15.5774 72.6071 15.8026C72.2694 15.9997 71.9879 16.0982 71.7627 16.0982C71.4249 16.0982 71.1434 15.9293 70.9182 15.5915C70.7212 15.2537 70.6227 14.9441 70.6227 14.6626C70.6227 14.2685 70.9182 13.9167 71.5093 13.6071C72.1005 13.2693 72.8323 13.0019 73.7049 12.8048C74.6056 12.5797 75.4923 12.4671 76.3649 12.4671C78.2508 12.4671 79.7427 12.8611 80.8405 13.6493C81.9664 14.4093 82.7686 15.4085 83.2471 16.6471C83.7538 17.8856 84.0071 19.2085 84.0071 20.616V31.5937C84.0071 31.9034 83.8805 32.1708 83.6271 32.396C83.4019 32.593 83.0783 32.6915 82.656 32.6915C82.3183 32.6915 82.0086 32.593 81.7271 32.396C81.4738 32.1708 81.3471 31.9034 81.3471 31.5937V29.736C80.6434 30.5804 79.7708 31.3404 78.7293 32.016C77.6879 32.6634 76.4493 32.9871 75.0138 32.9871ZM75.6894 30.6648C76.6182 30.6648 77.5049 30.4256 78.3493 29.9471C79.1938 29.4685 79.8834 28.8915 80.4182 28.216C80.9812 27.5122 81.2627 26.8508 81.2627 26.2315V23.5293H79.4894C78.2227 23.5293 77.0123 23.6137 75.8582 23.7826C74.7323 23.9234 73.8034 24.2471 73.0716 24.7537C72.3679 25.2604 72.016 26.0626 72.016 27.1604C72.016 28.3708 72.3679 29.2574 73.0716 29.8204C73.8034 30.3834 74.676 30.6648 75.6894 30.6648Z" fill="#45EDAD"/>
</svg>
