<svg width="15" height="15" viewBox="0 0 15 15" fill="none" xmlns="http://www.w3.org/2000/svg">
<path d="M10.0618 7.68351L13.904 3.84128C14.3755 3.36979 14.3755 2.60533 13.904 2.13345L13.0501 1.27954C12.5786 0.808045 11.8141 0.808045 11.3423 1.27954L7.50002 5.12177L3.6578 1.27954C3.1863 0.808045 2.42185 0.808045 1.94997 1.27954L1.09605 2.13345C0.624558 2.60495 0.624558 3.3694 1.09605 3.84128L4.93828 7.68351L1.09605 11.5257C0.624558 11.9972 0.624558 12.7617 1.09605 13.2336L1.94997 14.0875C2.42146 14.559 3.1863 14.559 3.6578 14.0875L7.50002 10.2453L11.3423 14.0875C11.8137 14.559 12.5786 14.559 13.0501 14.0875L13.904 13.2336C14.3755 12.7621 14.3755 11.9976 13.904 11.5257L10.0618 7.68351Z" fill="#F85858"/>
</svg>
