<svg width="13" height="17" viewBox="0 0 13 17" fill="none" xmlns="http://www.w3.org/2000/svg">
<path d="M11.6422 4.30021V14.5069C11.6422 14.8936 11.4886 15.2645 11.2151 15.5379C10.9417 15.8114 10.5708 15.965 10.1841 15.965H2.89361C2.5069 15.965 2.13603 15.8114 1.86258 15.5379C1.58914 15.2645 1.43552 14.8936 1.43552 14.5069V4.30021M3.62266 4.30021V2.84212C3.62266 2.4554 3.77628 2.08453 4.04973 1.81108C4.32318 1.53764 4.69405 1.38402 5.08076 1.38402H7.99696C8.38367 1.38402 8.75454 1.53764 9.02799 1.81108C9.30143 2.08453 9.45505 2.4554 9.45505 2.84212V4.30021" stroke="#F85858" stroke-width="1.4581" stroke-linecap="round" stroke-linejoin="round"/>
</svg>
