<svg width="15" height="15" viewBox="0 0 15 15" fill="none" xmlns="http://www.w3.org/2000/svg">
<path d="M10.0617 7.68351L13.904 3.84128C14.3755 3.36979 14.3755 2.60533 13.904 2.13345L13.05 1.27954C12.5786 0.808045 11.8141 0.808045 11.3422 1.27954L7.49999 5.12177L3.65776 1.27954C3.18627 0.808045 2.42182 0.808045 1.94994 1.27954L1.09602 2.13345C0.624527 2.60495 0.624527 3.3694 1.09602 3.84128L4.93825 7.68351L1.09602 11.5257C0.624527 11.9972 0.624527 12.7617 1.09602 13.2336L1.94994 14.0875C2.42143 14.559 3.18627 14.559 3.65776 14.0875L7.49999 10.2453L11.3422 14.0875C11.8137 14.559 12.5786 14.559 13.05 14.0875L13.904 13.2336C14.3755 12.7621 14.3755 11.9976 13.904 11.5257L10.0617 7.68351Z" fill="#F85858"/>
</svg>
