<svg width="12" height="8" viewBox="0 0 12 8" fill="none" xmlns="http://www.w3.org/2000/svg">
<path d="M7.40505 7.19829C7.20482 7.02108 7.20482 6.72691 7.40113 6.54616L9.78428 4.38775L0.703159 4.38775C0.424404 4.38775 0.196689 4.18218 0.196689 3.927C0.196689 3.67182 0.424404 3.46626 0.703159 3.46626L9.78428 3.46626L7.3972 1.30784C7.20089 1.12709 7.20482 0.836466 7.40113 0.655713C7.60136 0.478503 7.91937 0.478502 8.11961 0.659256L11.3547 3.60093C11.3979 3.64346 11.4333 3.68954 11.4607 3.74625C11.4882 3.80295 11.5 3.86321 11.5 3.92346C11.5 4.04396 11.449 4.15737 11.3547 4.24598L8.11961 7.18766C7.92723 7.37195 7.60529 7.3755 7.40505 7.19829Z" fill="#737373"/>
</svg>
