<svg width="93" height="30" viewBox="0 0 93 30" fill="none" xmlns="http://www.w3.org/2000/svg">
<path d="M2.7115 29.0448C1.92335 29.0448 1.27594 28.8618 0.769276 28.4959C0.262609 28.13 0.00927734 27.7219 0.00927734 27.2715V10.6781C0.00927734 10.1715 0.262609 9.76333 0.769276 9.4537C1.27594 9.14407 1.92335 8.98926 2.7115 8.98926C3.38705 8.98926 3.95002 9.14407 4.40039 9.4537C4.8789 9.76333 5.11816 10.1715 5.11816 10.6781V11.9448C5.59668 11.1285 6.30039 10.3967 7.22928 9.74926C8.15817 9.0737 9.32632 8.73593 10.7337 8.73593C11.9441 8.73593 13.0137 9.13 13.9426 9.91815C14.8715 10.7063 15.5611 11.7196 16.0115 12.9581C16.7434 11.5226 17.6722 10.467 18.7982 9.79148C19.9522 9.08778 21.1345 8.73593 22.3448 8.73593C23.6396 8.73593 24.85 9.0737 25.9759 9.74926C27.13 10.3967 28.0589 11.3678 28.7626 12.6626C29.4945 13.9293 29.8604 15.4774 29.8604 17.307V27.2715C29.8604 27.7219 29.593 28.13 29.0582 28.4959C28.5234 28.8618 27.8759 29.0448 27.1159 29.0448C26.3841 29.0448 25.7508 28.8618 25.2159 28.4959C24.6811 28.13 24.4137 27.7219 24.4137 27.2715V17.307C24.4137 16.4626 24.2448 15.7589 23.9071 15.1959C23.5974 14.633 23.1752 14.2107 22.6404 13.9293C22.1056 13.6196 21.5567 13.4648 20.9937 13.4648C20.4589 13.4648 19.9382 13.6196 19.4315 13.9293C18.9248 14.2107 18.5026 14.633 18.1648 15.1959C17.8271 15.7589 17.6582 16.4485 17.6582 17.2648V27.3137C17.6582 27.933 17.3626 28.3833 16.7715 28.6648C16.2085 28.9181 15.5893 29.0448 14.9137 29.0448C14.2945 29.0448 13.6893 28.9181 13.0982 28.6648C12.5071 28.3833 12.2115 27.933 12.2115 27.3137V17.307C12.2115 16.5189 12.0426 15.8433 11.7048 15.2804C11.3952 14.7174 10.973 14.2811 10.4382 13.9715C9.9315 13.6619 9.38261 13.507 8.7915 13.507C8.22854 13.507 7.69372 13.6478 7.18705 13.9293C6.68038 14.2107 6.25817 14.633 5.92039 15.1959C5.61076 15.7589 5.45595 16.4626 5.45595 17.307V27.2715C5.45595 27.7219 5.18854 28.13 4.65372 28.4959C4.11891 28.8618 3.4715 29.0448 2.7115 29.0448ZM43.3605 29.4248C41.362 29.4248 39.5886 29.073 38.0405 28.3693C36.5205 27.6374 35.3242 26.6241 34.4516 25.3293C33.579 24.0063 33.1427 22.4863 33.1427 20.7693V17.1804C33.1427 15.6604 33.5509 14.267 34.3672 13.0004C35.2116 11.7056 36.3235 10.6781 37.7027 9.91815C39.1101 9.13 40.6724 8.73593 42.3894 8.73593C43.9657 8.73593 45.4012 9.0737 46.6961 9.74926C48.019 10.4248 49.0887 11.3537 49.905 12.5359C50.7212 13.7181 51.1294 15.0974 51.1294 16.6737C51.1294 17.8841 50.9324 18.7567 50.5383 19.2915C50.1442 19.7981 49.6375 20.1219 49.0183 20.2626C48.4272 20.3752 47.8079 20.4315 47.1605 20.4315H38.5894V21.0648C38.5894 22.2752 39.0398 23.2604 39.9405 24.0204C40.8694 24.7522 42.0657 25.1181 43.5294 25.1181C44.4583 25.1181 45.2324 24.9774 45.8516 24.6959C46.4709 24.4144 47.0057 24.147 47.4561 23.8937C47.9064 23.6404 48.3286 23.5137 48.7227 23.5137C49.1449 23.5137 49.5109 23.6544 49.8205 23.9359C50.1301 24.2174 50.3694 24.5552 50.5383 24.9493C50.7072 25.3152 50.7916 25.6389 50.7916 25.9204C50.7916 26.3989 50.482 26.9196 49.8627 27.4826C49.2716 28.0174 48.4131 28.4818 47.2872 28.8759C46.1894 29.2418 44.8805 29.4248 43.3605 29.4248ZM38.5894 17.2226H44.7538C45.2324 17.2226 45.5561 17.1522 45.725 17.0115C45.922 16.8426 46.0205 16.533 46.0205 16.0826C46.0205 15.4352 45.8375 14.8581 45.4716 14.3515C45.1338 13.8448 44.6835 13.4507 44.1205 13.1693C43.5857 12.8878 42.9805 12.747 42.305 12.747C41.6575 12.747 41.0523 12.8878 40.4894 13.1693C39.9264 13.4226 39.462 13.8026 39.0961 14.3093C38.7583 14.7878 38.5894 15.3648 38.5894 16.0404V17.2226ZM62.1217 29.0448C59.5883 29.0448 57.6461 28.4959 56.295 27.3981C54.9721 26.3004 54.3106 24.5552 54.3106 22.1626V1.72704C54.3106 1.22037 54.6061 0.812221 55.1972 0.502591C55.7883 0.192962 56.3935 0.038147 57.0128 0.038147C57.6883 0.038147 58.3076 0.192962 58.8706 0.502591C59.4617 0.812221 59.7572 1.22037 59.7572 1.72704V8.98926H64.7395C65.1898 8.98926 65.5276 9.20037 65.7528 9.62259C66.0061 10.0167 66.1328 10.467 66.1328 10.9737C66.1328 11.4804 66.0061 11.9448 65.7528 12.367C65.5276 12.7611 65.1898 12.9581 64.7395 12.9581H59.7572V22.1626C59.7572 23.007 59.9261 23.5981 60.2639 23.9359C60.6298 24.2737 61.2491 24.4426 62.1217 24.4426H63.7684C64.5565 24.4426 65.1335 24.6819 65.4995 25.1604C65.8935 25.6389 66.0906 26.1596 66.0906 26.7226C66.0906 27.3137 65.8935 27.8485 65.4995 28.327C65.1335 28.8056 64.5565 29.0448 63.7684 29.0448H62.1217ZM73.2156 29.4248C71.7237 29.4248 70.4289 28.9744 69.3311 28.0737C68.2615 27.1448 67.7267 25.7233 67.7267 23.8093C67.7267 22.2048 68.1348 20.9522 68.9511 20.0515C69.7956 19.1507 70.9496 18.5174 72.4134 18.1515C73.9052 17.7856 75.6222 17.6026 77.5645 17.6026H79.2956V17.0537C79.2956 16.4344 79.1689 15.8293 78.9156 15.2381C78.6904 14.647 78.3104 14.1544 77.7756 13.7604C77.2689 13.3663 76.537 13.1693 75.58 13.1693C74.5104 13.1693 73.68 13.2819 73.0889 13.507C72.5259 13.7041 72.0896 13.9152 71.78 14.1404C71.4704 14.3656 71.1326 14.4781 70.7667 14.4781C70.1756 14.4781 69.7111 14.1826 69.3733 13.5915C69.0637 13.0004 68.9089 12.3952 68.9089 11.7759C68.9089 11.1848 69.2608 10.6641 69.9645 10.2137C70.6963 9.73518 71.583 9.36926 72.6245 9.11592C73.6659 8.86259 74.6793 8.73593 75.6645 8.73593C77.86 8.73593 79.6193 9.13 80.9422 9.91815C82.2652 10.7063 83.2222 11.7196 83.8133 12.9581C84.4326 14.1967 84.7422 15.5337 84.7422 16.9693V27.2715C84.7422 27.7781 84.4889 28.2004 83.9822 28.5381C83.4756 28.8759 82.8422 29.0448 82.0822 29.0448C81.3785 29.0448 80.7874 28.8759 80.3089 28.5381C79.8585 28.2004 79.6333 27.7781 79.6333 27.2715V26.0893C78.8733 26.9619 77.9726 27.7359 76.9311 28.4115C75.9178 29.087 74.6793 29.4248 73.2156 29.4248ZM75.4111 25.3715C76.0022 25.3715 76.5933 25.1744 77.1845 24.7804C77.7756 24.3863 78.2682 23.8796 78.6622 23.2604C79.0845 22.6411 79.2956 21.9937 79.2956 21.3181V20.4315H78.6622C77.7333 20.4315 76.8467 20.4878 76.0022 20.6004C75.1578 20.713 74.4682 20.9663 73.9334 21.3604C73.4267 21.7263 73.1734 22.3033 73.1734 23.0915C73.1734 23.8796 73.3845 24.4567 73.8067 24.8226C74.2571 25.1885 74.7919 25.3715 75.4111 25.3715ZM90.3033 29.2981C89.7403 29.2981 89.2618 29.1011 88.8677 28.707C88.5018 28.313 88.3188 27.8626 88.3188 27.3559C88.3188 26.793 88.5018 26.3285 88.8677 25.9626C89.2618 25.5685 89.7403 25.3715 90.3033 25.3715C90.8099 25.3715 91.2462 25.5685 91.6121 25.9626C92.0062 26.3285 92.2033 26.793 92.2033 27.3559C92.2033 27.8626 92.0062 28.313 91.6121 28.707C91.2462 29.1011 90.8099 29.2981 90.3033 29.2981Z" fill="white"/>
</svg>
