<svg width="12" height="8" viewBox="0 0 12 8" fill="none" xmlns="http://www.w3.org/2000/svg">
<path d="M4.59493 0.653548C4.79516 0.830757 4.79516 1.12493 4.59886 1.30568L2.2157 3.46409H11.2968C11.5756 3.46409 11.8033 3.66965 11.8033 3.92484C11.8033 4.18002 11.5756 4.38558 11.2968 4.38558H2.2157L4.60278 6.54399C4.79909 6.72475 4.79516 7.01537 4.59886 7.19612C4.39863 7.37333 4.08061 7.37334 3.88038 7.19258L0.645252 4.2509C0.602064 4.20837 0.566729 4.1623 0.539246 4.10559C0.511763 4.04888 0.499985 3.98863 0.499985 3.92838C0.499985 3.80788 0.551025 3.69446 0.645252 3.60586L3.88038 0.664181C4.07276 0.479883 4.3947 0.476338 4.59493 0.653548Z" fill="#737373"/>
</svg>
